<?xml version="1.0" standalone="no"?>
<!DOCTYPE svg PUBLIC "-//W3C//DTD SVG 20010904//EN"
 "http://www.w3.org/TR/2001/REC-SVG-20010904/DTD/svg10.dtd">
<svg version="1.0" xmlns="http://www.w3.org/2000/svg"
 width="78.000000pt" height="78.000000pt" viewBox="0 0 78.000000 78.000000"
 preserveAspectRatio="xMidYMid meet">
<metadata>
Created by potrace 1.11, written by Peter Selinger 2001-2013
</metadata>
<g transform="translate(0.000000,78.000000) scale(0.100000,-0.100000)"
fill="#000000" stroke="none">
<path d="M353 768 c-34 -7 -52 -20 -85 -59 -39 -45 -47 -49 -86 -49 -93 0
-165 -78 -153 -165 1 -11 12 -39 24 -63 20 -41 20 -44 3 -73 -42 -71 -39 -135
8 -188 39 -44 74 -51 250 -51 174 0 191 -5 128 -42 -61 -36 -131 -30 -181 15
-23 20 -23 19 3 -15 68 -91 192 -89 253 4 23 35 30 38 70 38 127 0 200 116
140 224 -25 44 -25 45 -6 75 42 69 40 140 -5 189 -43 49 -65 53 -254 53 l-177
0 34 29 c44 38 110 49 157 26 19 -8 34 -20 34 -26 0 -5 5 -10 10 -10 16 0 -18
46 -47 65 -39 26 -74 32 -120 23z m-170 -195 c-75 -127 -83 -134 -83 -66 0 67
57 143 107 143 21 0 19 -4 -24 -77z m287 61 c41 -4 78 -8 82 -10 15 -9 108
-265 101 -277 -4 -7 -41 -58 -81 -114 -68 -95 -74 -101 -105 -98 -17 2 -72 6
-122 9 -173 12 -196 19 -243 66 -45 44 -58 98 -35 143 l14 29 67 -111 c36 -61
67 -110 68 -108 2 1 -20 58 -47 127 -27 68 -48 129 -47 135 2 6 37 59 78 118
l75 107 60 -5 c33 -2 94 -8 135 -11z m156 -24 c73 -36 118 -137 84 -190 -12
-20 -18 -13 -84 98 -73 122 -73 127 0 92z m48 -352 c-5 -47 -34 -95 -68 -113
-58 -31 -58 -14 2 87 47 80 58 93 63 75 3 -12 5 -34 3 -49z"/>
<path d="M455 570 c3 -5 -7 -23 -22 -41 -27 -32 -28 -37 -28 -150 0 -133 11
-159 70 -159 42 0 62 24 70 83 7 47 6 49 -17 45 -19 -2 -24 -10 -26 -39 -3
-39 -35 -61 -46 -32 -11 27 -6 199 5 210 21 21 39 3 39 -38 0 -34 3 -39 24
-39 22 0 24 4 22 45 -1 30 -9 51 -24 68 -12 13 -22 30 -22 39 0 10 -9 16 -25
16 -13 0 -22 -4 -20 -8z"/>
<path d="M230 380 l0 -160 49 0 c33 0 56 6 72 19 23 18 24 25 24 140 0 143 -4
151 -89 157 l-56 4 0 -160z m95 0 c0 -101 -1 -105 -22 -108 -20 -3 -23 1 -24
30 -5 206 -6 189 21 186 25 -3 25 -3 25 -108z"/>
</g>
</svg>
